<svg width="20" height="20" viewBox="0 0 20 20" fill="none" xmlns="http://www.w3.org/2000/svg">
<path d="M11.9673 7.7143L10.6341 3.6155C10.4344 3.00157 9.56581 3.00156 9.36611 3.61549L8.18262 7.25385C8.09331 7.52843 7.83739 7.7143 7.54865 7.7143H3.72038C3.07439 7.7143 2.80599 8.54109 3.32881 8.92052L6.42467 11.1673C6.65859 11.3371 6.75647 11.6382 6.66707 11.9131L5.48426 15.5493C5.28451 16.1634 5.98718 16.6744 6.5098 16.2951L9.60851 14.0463C9.84205 13.8768 10.1581 13.8768 10.3917 14.0463L13.4904 16.2951C14.013 16.6744 14.7157 16.1634 14.5159 15.5493L13.1831 11.452L11.9673 7.7143Z" fill="#FF9900"/>
</svg>
