<svg width="24" height="24" viewBox="0 0 24 24" fill="none" xmlns="http://www.w3.org/2000/svg">
<path d="M11.2392 4.33879C11.4789 3.60207 12.5211 3.60207 12.7608 4.33878L14.181 8.70481C14.2881 9.0343 14.5952 9.25735 14.9417 9.25735H19.5356C20.3108 9.25735 20.6329 10.2495 20.0055 10.7048L16.2905 13.4009C16.0098 13.6047 15.8923 13.966 15.9996 14.2959L17.419 18.6594C17.6587 19.3963 16.8155 20.0095 16.1883 19.5543L12.4699 16.8557C12.1896 16.6523 11.8104 16.6523 11.5301 16.8557L7.81166 19.5543C7.18452 20.0095 6.34131 19.3963 6.58101 18.6594L8.00039 14.2959C8.10767 13.966 7.99021 13.6047 7.70951 13.4009L3.99448 10.7048C3.36709 10.2495 3.68917 9.25735 4.46436 9.25735H9.05829C9.40477 9.25735 9.71187 9.0343 9.81905 8.70481L11.2392 4.33879Z" fill="#A5ADB8"/>
</svg>
